<?xml version="1.0" standalone="no"?>
<!DOCTYPE svg PUBLIC "-//W3C//DTD SVG 20010904//EN"
 "http://www.w3.org/TR/2001/REC-SVG-20010904/DTD/svg10.dtd">
<svg version="1.0" xmlns="http://www.w3.org/2000/svg"
 width="640.000000pt" height="1280.000000pt" viewBox="0 0 640.000000 1280.000000"
 preserveAspectRatio="xMidYMid meet">
<metadata>
Created by potrace 1.15, written by Peter Selinger 2001-2017
</metadata>
<g transform="translate(0.000000,1280.000000) scale(0.100000,-0.100000)"
fill="#000000" stroke="none">
<path d="M3090 7539 l0 -5152 -45 6 c-134 19 -305 105 -426 216 -44 39 -69 57
-66 46 3 -11 149 -610 323 -1332 175 -722 320 -1311 321 -1309 5 4 643 2636
643 2649 0 6 -28 -17 -63 -49 -76 -74 -139 -117 -222 -155 -67 -30 -196 -69
-230 -69 l-20 0 3 5150 2 5150 -110 0 -110 0 0 -5151z"/>
</g>
</svg>
